<svg width="157" height="46" viewBox="0 0 157 46" fill="none" xmlns="http://www.w3.org/2000/svg">
<path d="M9.62028 7.80993C11.1779 7.01007 12.9881 6.5891 14.9667 6.5891C17.24 6.5891 19.3028 7.13637 21.1551 8.27301C23.0074 9.40966 24.4808 10.9673 25.5754 12.9459C26.6278 14.9666 27.1751 17.282 27.1751 19.892C27.1751 22.5021 26.6278 24.8175 25.5754 26.8803C24.5229 28.9431 23.0495 30.5428 21.1551 31.6794C19.3028 32.8161 17.1979 33.4055 14.9667 33.4055C12.9881 33.4055 11.22 32.9845 9.70448 32.1846C8.14686 31.3848 6.92602 30.3744 5.91567 29.1957V45.3192H0.52713V6.96797H5.91567V10.7989C6.79972 9.62015 8.06266 8.60979 9.62028 7.80993ZM20.6078 15.2192C19.8501 13.9141 18.8818 12.9459 17.7031 12.2302C16.4822 11.5566 15.1772 11.2199 13.8301 11.2199C12.4829 11.2199 11.1779 11.5567 9.99916 12.2723C8.77832 12.9459 7.81007 13.9562 7.09441 15.3034C6.33665 16.6084 5.99986 18.166 5.99986 19.9762C5.99986 21.7864 6.37874 23.3441 7.09441 24.6491C7.85217 25.9962 8.82042 27.0066 9.99916 27.6801C11.22 28.3537 12.4829 28.7326 13.8301 28.7326C15.2193 28.7326 16.5243 28.3958 17.7031 27.6801C18.9239 26.9645 19.8922 25.9541 20.6078 24.607C21.3656 23.2599 21.7024 21.7022 21.7024 19.892C21.7024 18.0818 21.3235 16.5242 20.6078 15.2192Z" fill="url(#paint0_linear)"/>
<path d="M29.4905 12.9459C30.585 10.9252 32.0585 9.36756 33.9108 8.27301C35.7631 7.17847 37.868 6.5891 40.0992 6.5891C42.162 6.5891 43.9301 7.01007 45.4456 7.80993C46.9611 8.60979 48.182 9.62015 49.1081 10.7989V7.01008H54.5387V32.9845H49.1081V29.1115C48.182 30.3323 46.9611 31.3427 45.4035 32.1846C43.8459 32.9845 42.0357 33.4055 40.015 33.4055C37.7838 33.4055 35.721 32.8161 33.8687 31.6794C32.0164 30.5428 30.5429 28.9431 29.4484 26.8803C28.3538 24.8175 27.8066 22.5021 27.8066 19.892C27.8908 17.2399 28.438 14.9666 29.4905 12.9459ZM48.0557 15.3034C47.2979 13.9983 46.3296 12.988 45.1509 12.2723C43.9722 11.5987 42.6671 11.2199 41.2779 11.2199C39.8887 11.2199 38.6257 11.5566 37.4049 12.2302C36.2262 12.9038 35.2579 13.9141 34.5001 15.2192C33.7424 16.5242 33.4056 18.0818 33.4056 19.8499C33.4056 21.6601 33.7845 23.2178 34.5001 24.5649C35.2579 25.912 36.2262 26.9645 37.4049 27.6381C38.6257 28.3537 39.8887 28.6905 41.2358 28.6905C42.625 28.6905 43.888 28.3537 45.1088 27.6381C46.2876 26.9645 47.2558 25.9541 48.0136 24.607C48.7713 23.2599 49.1081 21.7022 49.1081 19.9341C49.1502 18.166 48.7713 16.6084 48.0557 15.3034Z" fill="url(#paint1_linear)"/>
<path d="M62.7478 32.3109C61.1481 31.5532 59.8431 30.5849 58.9169 29.2799C57.9908 28.0169 57.4856 26.5856 57.4014 25.028H62.9583C63.0425 26.1225 63.5898 27.0487 64.558 27.8064C65.5263 28.5642 66.705 28.901 68.1785 28.901C69.694 28.901 70.8727 28.6063 71.6726 28.0169C72.5145 27.4276 72.9355 26.6698 72.9355 25.7857C72.9355 24.8175 72.4725 24.1018 71.5463 23.5967C70.6201 23.1336 69.1467 22.5863 67.126 22.039C65.1895 21.4918 63.5898 20.9866 62.369 20.4814C61.1481 19.9762 60.0957 19.2185 59.1695 18.166C58.2855 17.1136 57.8224 15.7664 57.8224 14.0825C57.8224 12.6933 58.2434 11.4304 59.0432 10.2937C59.8431 9.15706 61.0218 8.23091 62.5374 7.59944C64.0529 6.92588 65.821 6.5891 67.7996 6.5891C70.7464 6.5891 73.146 7.34685 74.9562 8.82028C76.7664 10.2937 77.7347 12.3565 77.861 14.9245H72.4724C72.3882 13.7457 71.9252 12.8196 71.0411 12.146C70.1992 11.4724 69.0625 11.0936 67.5891 11.0936C66.1578 11.0936 65.1053 11.3462 64.3476 11.8934C63.5898 12.4407 63.2109 13.1564 63.2109 13.9983C63.2109 14.6719 63.4635 15.2613 63.9687 15.7243C64.4739 16.1874 65.0632 16.5663 65.821 16.8189C66.5366 17.0715 67.6312 17.4083 69.0204 17.8292C70.9148 18.3344 72.4725 18.8396 73.6512 19.3448C74.872 19.8499 75.9245 20.6077 76.7664 21.618C77.6505 22.6284 78.1136 23.9755 78.1136 25.6174C78.1136 27.0908 77.6926 28.3958 76.8927 29.5746C76.0929 30.7533 74.9141 31.6374 73.4407 32.3109C71.9673 32.9845 70.1992 33.3213 68.1785 33.3213C66.1999 33.4055 64.3476 33.0266 62.7478 32.3109Z" fill="url(#paint2_linear)"/>
<path d="M87.4172 11.3883V25.7857C87.4172 26.754 87.6277 27.4696 88.0908 27.8906C88.5539 28.3116 89.3116 28.5221 90.4062 28.5221H93.6898V32.9845H89.4379C86.9962 32.9845 85.1439 32.4372 83.881 31.3006C82.576 30.1639 81.9445 28.3116 81.9445 25.7857V11.3883H78.8713V7.01008H81.9445V0.569092H87.3751V7.01008H93.6898V11.3883H87.4172Z" fill="url(#paint3_linear)"/>
<path d="M101.225 4.5263V14.1246H112.55V18.5028H101.225V28.5642H113.939V32.9424H95.8368V0.106018H113.939V4.48421H101.225V4.5263Z" fill="url(#paint4_linear)"/>
<path d="M126.274 7.68363C127.579 6.92587 129.136 6.5891 130.904 6.5891V12.146H129.557C127.452 12.146 125.853 12.6933 124.758 13.7457C123.663 14.7982 123.116 16.6505 123.116 19.3027V32.9845H117.728V7.01007H123.116V10.7989C123.916 9.45175 124.969 8.3993 126.274 7.68363Z" fill="url(#paint5_linear)"/>
<path d="M156.416 7.01009L140.461 45.1929H134.904L140.166 32.5635L129.936 7.01009H135.914L143.239 26.7961L150.817 7.01009H156.416Z" fill="url(#paint6_linear)"/>
<defs>
<linearGradient id="paint0_linear" x1="0.534076" y1="22.7442" x2="156.409" y2="22.7442" gradientUnits="userSpaceOnUse">
<stop stop-color="#2AFFCC"/>
<stop offset="0.0999451" stop-color="#2BEEC4"/>
<stop offset="0.2984" stop-color="#2DC1AF"/>
<stop offset="0.5766" stop-color="#30798E"/>
<stop offset="0.9209" stop-color="#341860"/>
<stop offset="1" stop-color="#350055"/>
</linearGradient>
<linearGradient id="paint1_linear" x1="0.534075" y1="22.7442" x2="156.409" y2="22.7442" gradientUnits="userSpaceOnUse">
<stop stop-color="#2AFFCC"/>
<stop offset="0.0999451" stop-color="#2BEEC4"/>
<stop offset="0.2984" stop-color="#2DC1AF"/>
<stop offset="0.5766" stop-color="#30798E"/>
<stop offset="0.9209" stop-color="#341860"/>
<stop offset="1" stop-color="#350055"/>
</linearGradient>
<linearGradient id="paint2_linear" x1="0.534093" y1="22.7442" x2="156.409" y2="22.7442" gradientUnits="userSpaceOnUse">
<stop stop-color="#2AFFCC"/>
<stop offset="0.0999451" stop-color="#2BEEC4"/>
<stop offset="0.2984" stop-color="#2DC1AF"/>
<stop offset="0.5766" stop-color="#30798E"/>
<stop offset="0.9209" stop-color="#341860"/>
<stop offset="1" stop-color="#350055"/>
</linearGradient>
<linearGradient id="paint3_linear" x1="0.53406" y1="22.7442" x2="156.409" y2="22.7442" gradientUnits="userSpaceOnUse">
<stop stop-color="#2AFFCC"/>
<stop offset="0.0999451" stop-color="#2BEEC4"/>
<stop offset="0.2984" stop-color="#2DC1AF"/>
<stop offset="0.5766" stop-color="#30798E"/>
<stop offset="0.9209" stop-color="#341860"/>
<stop offset="1" stop-color="#350055"/>
</linearGradient>
<linearGradient id="paint4_linear" x1="0.534273" y1="22.7442" x2="156.409" y2="22.7442" gradientUnits="userSpaceOnUse">
<stop stop-color="#2AFFCC"/>
<stop offset="0.0999451" stop-color="#2BEEC4"/>
<stop offset="0.2984" stop-color="#2DC1AF"/>
<stop offset="0.5766" stop-color="#30798E"/>
<stop offset="0.9209" stop-color="#341860"/>
<stop offset="1" stop-color="#350055"/>
</linearGradient>
<linearGradient id="paint5_linear" x1="0.533843" y1="22.7442" x2="156.409" y2="22.7442" gradientUnits="userSpaceOnUse">
<stop stop-color="#2AFFCC"/>
<stop offset="0.0999451" stop-color="#2BEEC4"/>
<stop offset="0.2984" stop-color="#2DC1AF"/>
<stop offset="0.5766" stop-color="#30798E"/>
<stop offset="0.9209" stop-color="#341860"/>
<stop offset="1" stop-color="#350055"/>
</linearGradient>
<linearGradient id="paint6_linear" x1="0.533914" y1="22.7442" x2="156.409" y2="22.7442" gradientUnits="userSpaceOnUse">
<stop stop-color="#2AFFCC"/>
<stop offset="0.0999451" stop-color="#2BEEC4"/>
<stop offset="0.2984" stop-color="#2DC1AF"/>
<stop offset="0.5766" stop-color="#30798E"/>
<stop offset="0.9209" stop-color="#341860"/>
<stop offset="1" stop-color="#350055"/>
</linearGradient>
</defs>
</svg>
